<svg width="137" height="22" viewBox="0 0 137 22" fill="none" xmlns="http://www.w3.org/2000/svg">
<g clip-path="url(#clip0)">
<path d="M54.0107 15.1377C54.0107 17.4815 54.3826 20.9169 52.0963 20.9677C49.8099 21.0185 50.0277 17.3885 50.073 14.9769C50.1184 12.7177 49.9097 9.44308 52.0963 9.41769C54.0832 9.41769 54.0197 12.8023 54.0197 15.1377H54.0107ZM59.5451 15.0446C59.4317 13.2907 58.6038 11.6435 57.2309 10.4402C55.858 9.23683 54.0439 8.56835 52.1598 8.57154C48.2494 8.57154 44.6656 11.2877 44.5477 15.0446C44.4297 18.8015 48.1315 21.9662 52.187 21.9238C55.8162 21.8731 59.6358 19.14 59.5451 15.0446ZM37.7703 15.1377C37.7703 17.4815 38.1513 20.9169 35.8559 20.9677C33.5605 21.0185 33.7873 17.3885 33.8326 14.9769C33.878 12.7177 33.6693 9.44308 35.8559 9.41769C37.8156 9.39231 37.743 12.8362 37.743 15.1377H37.7703ZM43.3047 15.0446C43.1913 13.2907 42.3634 11.6435 40.9905 10.4402C39.6176 9.23683 37.8035 8.56835 35.9194 8.57154C32.009 8.57154 28.4252 11.2877 28.3073 15.0446C28.1893 18.8015 31.8911 21.9662 35.9466 21.9238C39.5304 21.8731 43.3682 19.14 43.2775 15.0446H43.3047ZM82.8714 21.7462V0C82.5085 0.160769 80.948 1.04923 79.7594 1.57385C79.1243 1.86154 78.4166 2.18308 77.718 2.47077V21.7462H82.8714ZM87.934 1.69231C84.2505 1.69231 84.2505 7.02308 87.934 7.02308C91.6176 7.02308 91.6358 1.69231 87.934 1.69231ZM90.547 21.7462V8.72385C90.1841 8.87615 88.6689 9.39231 87.4623 9.84923C86.8272 10.1031 86.0923 10.3654 85.4209 10.5938V13.4792C85.4209 13.6738 85.4209 13.8769 85.4209 14.0546V21.67V21.7546L90.547 21.7462ZM116.668 13.4369H112.848C112.848 13.4369 112.612 9.55308 114.79 9.55308C116.604 9.55308 116.604 11.2877 116.668 12.0915V13.4031V13.4369ZM120.415 13.5554C120.415 10.3992 117.693 8.69 114.79 8.69C111.514 8.69 108.312 11.6008 108.221 15.5862C108.214 16.4232 108.384 17.2533 108.721 18.029C109.059 18.8046 109.557 19.5106 110.187 20.1064C110.818 20.7022 111.568 21.1762 112.395 21.5011C113.222 21.826 114.11 21.9956 115.007 22C116.058 22.0082 117.094 21.7789 118.029 21.3315C118.967 20.8712 119.776 20.2101 120.388 19.4023V18.1415C120.11 18.4938 119.739 18.7731 119.312 18.9525C118.884 19.1319 118.414 19.2052 117.947 19.1654C112.857 19.1654 112.857 14.2662 112.857 14.2662H120.433L120.415 13.5554ZM107.178 20.8069C106.542 20.5615 106.388 19.7408 106.388 18.1331V12.5823C106.333 11.5641 105.866 10.6033 105.082 9.89349C104.297 9.18371 103.253 8.77782 102.16 8.75769C101.419 8.7251 100.679 8.85688 100.003 9.14221C99.3261 9.42754 98.7316 9.85831 98.268 10.3992L97.9868 10.6446V8.66462C97.6238 8.84231 93.9675 10.2808 93.2779 10.5769V14.0123C93.2779 14.2408 93.2779 14.4438 93.2779 14.6131V21.7462H98.4313V12.8785C98.4313 11.8969 98.7579 10.6954 99.9465 10.6954C101.589 10.6954 101.344 12.8277 101.344 13.2338V18.1331C101.344 21.0354 102.46 21.7292 104.592 21.7292H108.221V20.8831C107.871 20.9075 107.519 20.8818 107.178 20.8069ZM135.993 20.8069C135.358 20.5615 135.195 19.7408 135.195 18.1331V12.5823C135.14 11.5656 134.674 10.6059 133.891 9.89633C133.109 9.18676 132.067 8.77994 130.976 8.75769C130.234 8.7251 129.495 8.85688 128.818 9.14221C128.141 9.42754 127.547 9.85831 127.083 10.3992L126.793 10.6446V8.66462C126.439 8.84231 122.783 10.2808 122.093 10.5769V14.0123C122.093 14.2408 122.093 14.4438 122.093 14.6131V21.7462H127.247V12.8785C127.247 11.8969 127.573 10.6954 128.762 10.6954C130.395 10.6954 130.159 12.8277 130.159 13.2338V18.1331C130.159 21.0354 131.275 21.7292 133.407 21.7292H137.036V20.8831C136.686 20.908 136.334 20.8823 135.993 20.8069ZM76.6202 21.7462L71.8025 15.2308C74.5244 13.9277 74.851 12.87 74.851 11.5923C74.851 8.41923 71.2219 8.32615 69.7793 8.58C68.5649 8.84691 67.3956 9.2683 66.3044 9.83231V0C65.9505 0.203077 64.4172 1.09154 63.1924 1.64154C62.6027 1.94615 61.7861 2.26769 61.0875 2.53846V21.7462H66.3044V15.8231L66.4042 15.9669L70.2238 21.7631H76.5748L76.6202 21.7462ZM69.7793 12.0492C69.625 14.5877 66.3044 14.85 66.3044 14.85V11.0508C66.7474 10.7606 67.2419 10.5457 67.7651 10.4162C69.0172 10.1792 69.87 10.6108 69.7793 12.0492ZM23.6438 21.8308V12.8192C23.6438 11.8208 24.0703 11.1269 24.4785 11.1269C25.0955 11.1269 25.8032 12.3538 26.774 12.2862C27.2581 12.2528 27.7097 12.0467 28.0351 11.7108C28.3702 11.3722 28.555 10.9277 28.5523 10.4669C28.543 10.2031 28.4773 9.94372 28.3591 9.70395C28.2408 9.46417 28.0723 9.24887 27.8635 9.07071C27.6547 8.89254 27.4098 8.7551 27.1433 8.66647C26.8767 8.57784 26.5938 8.53981 26.3113 8.55462C25.7135 8.61161 25.1403 8.80612 24.6431 9.12069C24.1459 9.43526 23.7402 9.86005 23.4624 10.3569L23.3354 10.5346C22.9452 9.02846 21.9109 8.65615 20.2687 8.65615H16.6396V9.50231H16.8301C17.0388 9.50231 17.4471 9.58692 17.6558 9.61231C18.1003 9.71385 18.3362 10.2638 18.4179 11.2369C18.4179 11.8208 18.4179 12.5823 18.4179 13.4031V21.8646L23.6438 21.8308ZM12.7564 8.74923C11.7261 8.54688 10.6572 8.59643 9.65351 8.89308C8.63935 9.19273 7.72214 9.72518 6.98609 10.4415V2.87692V2.40308C6.57781 0.896923 5.24411 0.524615 3.62914 0.524615H0V1.37077H0.181457C0.399205 1.37077 0.798411 1.45538 1.01616 1.48077C1.43351 1.58231 1.6694 2.08154 1.76013 2.97846C1.76013 4.34923 1.68755 14.1138 1.68755 16.1192C1.68755 20.1215 3.55656 22.0423 8.22 22.0423C14.4349 22.0423 16.2676 18.7592 16.5852 15.7638C17.0388 11.6092 15.2424 9.24846 12.7746 8.79154L12.7564 8.74923ZM8.46497 20.7815C6.88629 20.8323 7.01331 19.9354 7.01331 19.9354V11.4992C9.51742 9.90846 11.5497 11.0423 11.6132 15.0869C11.6677 17.2446 11.0417 20.7054 8.46497 20.7815Z" fill="#154073"/>
</g>
<defs>
<clipPath id="clip0">
<rect width="137" height="22" fill="white"/>
</clipPath>
</defs>
</svg>
