<svg width="63" height="11" viewBox="0 0 63 11" fill="none" xmlns="http://www.w3.org/2000/svg">
<path d="M4.6389 0.705366C4.69279 0.596018 4.77621 0.503937 4.87972 0.439549C4.98324 0.37516 5.10271 0.341034 5.22461 0.341034C5.34652 0.341034 5.46599 0.37516 5.5695 0.439549C5.67301 0.503937 5.75643 0.596018 5.81032 0.705366L7.07053 3.2591L9.88936 3.6685C10.01 3.68602 10.1233 3.73693 10.2164 3.81549C10.3096 3.89404 10.3789 3.99711 10.4166 4.11301C10.4542 4.22892 10.4587 4.35305 10.4294 4.47136C10.4002 4.58966 10.3384 4.69743 10.2511 4.78245L8.21125 6.77072L8.69314 9.5778C8.71371 9.69788 8.70028 9.82132 8.65437 9.93417C8.60845 10.047 8.53188 10.1448 8.43331 10.2164C8.33474 10.288 8.2181 10.3306 8.09659 10.3393C7.97507 10.3481 7.85353 10.3227 7.74569 10.266L5.22526 8.94051L2.70353 10.266C2.59571 10.3225 2.47425 10.3478 2.35284 10.3389C2.23143 10.3301 2.11492 10.2874 2.01646 10.2159C1.91799 10.1443 1.8415 10.0466 1.7956 9.93387C1.74971 9.82113 1.73625 9.69779 1.75673 9.5778L2.23797 6.77007L0.198116 4.78245C0.110813 4.69743 0.0490475 4.58966 0.0198069 4.47136C-0.00943378 4.35305 -0.00498251 4.22892 0.0326572 4.11301C0.0702968 3.99711 0.139623 3.89404 0.232792 3.81549C0.325961 3.73693 0.439255 3.68602 0.559857 3.6685L3.37869 3.2591L4.6389 0.706019V0.705366Z" fill="#F2C94C"/>
<path d="M30.6382 0.705366C30.6921 0.596018 30.7755 0.503937 30.879 0.439549C30.9825 0.37516 31.102 0.341034 31.2239 0.341034C31.3458 0.341034 31.4653 0.37516 31.5688 0.439549C31.6723 0.503937 31.7557 0.596018 31.8096 0.705366L33.0698 3.2591L35.8886 3.6685C36.0092 3.68602 36.1225 3.73693 36.2157 3.81549C36.3089 3.89404 36.3782 3.99711 36.4158 4.11301C36.4535 4.22892 36.4579 4.35305 36.4287 4.47136C36.3994 4.58966 36.3377 4.69743 36.2504 4.78245L34.2105 6.77072L34.6924 9.5778C34.713 9.69788 34.6996 9.82132 34.6536 9.93417C34.6077 10.047 34.5311 10.1448 34.4326 10.2164C34.334 10.288 34.2174 10.3306 34.0959 10.3393C33.9743 10.3481 33.8528 10.3227 33.745 10.266L31.2245 8.94051L28.7028 10.266C28.595 10.3225 28.4735 10.3478 28.3521 10.3389C28.2307 10.3301 28.1142 10.2874 28.0157 10.2159C27.9173 10.1443 27.8408 10.0466 27.7949 9.93387C27.749 9.82113 27.7355 9.69779 27.756 9.5778L28.2372 6.77007L26.1974 4.78245C26.1101 4.69743 26.0483 4.58966 26.0191 4.47136C25.9898 4.35305 25.9943 4.22892 26.0319 4.11301C26.0696 3.99711 26.1389 3.89404 26.2321 3.81549C26.3252 3.73693 26.4385 3.68602 26.5591 3.6685L29.378 3.2591L30.6382 0.706019V0.705366Z" fill="#F2C94C"/>
<path d="M17.6382 0.705366C17.6921 0.596018 17.7755 0.503937 17.879 0.439549C17.9825 0.37516 18.102 0.341034 18.2239 0.341034C18.3458 0.341034 18.4653 0.37516 18.5688 0.439549C18.6723 0.503937 18.7557 0.596018 18.8096 0.705366L20.0698 3.2591L22.8886 3.6685C23.0092 3.68602 23.1225 3.73693 23.2157 3.81549C23.3089 3.89404 23.3782 3.99711 23.4158 4.11301C23.4535 4.22892 23.4579 4.35305 23.4287 4.47136C23.3994 4.58966 23.3377 4.69743 23.2504 4.78245L21.2105 6.77072L21.6924 9.5778C21.713 9.69788 21.6996 9.82132 21.6536 9.93417C21.6077 10.047 21.5311 10.1448 21.4326 10.2164C21.334 10.288 21.2174 10.3306 21.0959 10.3393C20.9743 10.3481 20.8528 10.3227 20.745 10.266L18.2245 8.94051L15.7028 10.266C15.595 10.3225 15.4735 10.3478 15.3521 10.3389C15.2307 10.3301 15.1142 10.2874 15.0157 10.2159C14.9173 10.1443 14.8408 10.0466 14.7949 9.93387C14.749 9.82113 14.7355 9.69779 14.756 9.5778L15.2372 6.77007L13.1974 4.78245C13.1101 4.69743 13.0483 4.58966 13.0191 4.47136C12.9898 4.35305 12.9943 4.22892 13.0319 4.11301C13.0696 3.99711 13.1389 3.89404 13.2321 3.81549C13.3252 3.73693 13.4385 3.68602 13.5591 3.6685L16.378 3.2591L17.6382 0.706019V0.705366Z" fill="#F2C94C"/>
<path d="M43.6374 0.705366C43.6913 0.596018 43.7747 0.503937 43.8783 0.439549C43.9818 0.37516 44.1012 0.341034 44.2231 0.341034C44.3451 0.341034 44.4645 0.37516 44.568 0.439549C44.6715 0.503937 44.755 0.596018 44.8089 0.705366L46.0691 3.2591L48.8879 3.6685C49.0085 3.68602 49.1218 3.73693 49.215 3.81549C49.3081 3.89404 49.3775 3.99711 49.4151 4.11301C49.4527 4.22892 49.4572 4.35305 49.4279 4.47136C49.3987 4.58966 49.3369 4.69743 49.2496 4.78245L47.2098 6.77072L47.6917 9.5778C47.7122 9.69788 47.6988 9.82132 47.6529 9.93417C47.607 10.047 47.5304 10.1448 47.4318 10.2164C47.3333 10.288 47.2166 10.3306 47.0951 10.3393C46.9736 10.3481 46.8521 10.3227 46.7442 10.266L44.2238 8.94051L41.7021 10.266C41.5942 10.3225 41.4728 10.3478 41.3514 10.3389C41.23 10.3301 41.1135 10.2874 41.015 10.2159C40.9165 10.1443 40.84 10.0466 40.7941 9.93387C40.7482 9.82113 40.7348 9.69779 40.7553 9.5778L41.2365 6.77007L39.1967 4.78245C39.1093 4.69743 39.0476 4.58966 39.0183 4.47136C38.9891 4.35305 38.9936 4.22892 39.0312 4.11301C39.0688 3.99711 39.1382 3.89404 39.2313 3.81549C39.3245 3.73693 39.4378 3.68602 39.5584 3.6685L42.3772 3.2591L43.6374 0.706019V0.705366Z" fill="#F2C94C"/>
<path d="M56.6382 0.705366C56.6921 0.596018 56.7755 0.503937 56.879 0.439549C56.9825 0.37516 57.102 0.341034 57.2239 0.341034C57.3458 0.341034 57.4653 0.37516 57.5688 0.439549C57.6723 0.503937 57.7557 0.596018 57.8096 0.705366L59.0698 3.2591L61.8886 3.6685C62.0092 3.68602 62.1225 3.73693 62.2157 3.81549C62.3089 3.89404 62.3782 3.99711 62.4158 4.11301C62.4535 4.22892 62.4579 4.35305 62.4287 4.47136C62.3994 4.58966 62.3377 4.69743 62.2504 4.78245L60.2105 6.77072L60.6924 9.5778C60.713 9.69788 60.6996 9.82132 60.6536 9.93417C60.6077 10.047 60.5311 10.1448 60.4326 10.2164C60.334 10.288 60.2174 10.3306 60.0959 10.3393C59.9743 10.3481 59.8528 10.3227 59.745 10.266L57.2245 8.94051L54.7028 10.266C54.595 10.3225 54.4735 10.3478 54.3521 10.3389C54.2307 10.3301 54.1142 10.2874 54.0157 10.2159C53.9173 10.1443 53.8408 10.0466 53.7949 9.93387C53.749 9.82113 53.7355 9.69779 53.756 9.5778L54.2372 6.77007L52.1974 4.78245C52.1101 4.69743 52.0483 4.58966 52.0191 4.47136C51.9898 4.35305 51.9943 4.22892 52.0319 4.11301C52.0696 3.99711 52.1389 3.89404 52.2321 3.81549C52.3252 3.73693 52.4385 3.68602 52.5591 3.6685L55.378 3.2591L56.6382 0.706019V0.705366Z" fill="#F2C94C"/>
</svg>
